<svg width="39" height="39" viewBox="0 0 39 39" fill="none" xmlns="http://www.w3.org/2000/svg">
<path d="M35.3438 3.09375H3.65625C2.98213 3.09375 2.4375 3.63838 2.4375 4.3125V28.6875C2.4375 29.3616 2.98213 29.9062 3.65625 29.9062H35.3438C36.0179 29.9062 36.5625 29.3616 36.5625 28.6875V4.3125C36.5625 3.63838 36.0179 3.09375 35.3438 3.09375ZM33.8203 7.31367V27.1641H5.17969V7.31367L4.12852 6.49482L5.62529 4.57148L7.25537 5.83975H31.7484L33.3785 4.57148L34.8753 6.49482L33.8203 7.31367ZM31.7484 5.83594L19.5 15.3574L7.25156 5.83594L5.62148 4.56768L4.12471 6.49102L5.17588 7.30986L18.186 17.4255C18.5602 17.7162 19.0205 17.874 19.4943 17.874C19.9681 17.874 20.4284 17.7162 20.8025 17.4255L33.8203 7.31367L34.8715 6.49482L33.3747 4.57148L31.7484 5.83594Z" fill="#7AA338"/>
</svg>
