<svg width="100" height="100" viewBox="0 0 100 100" fill="none" xmlns="http://www.w3.org/2000/svg">
<path d="M40.625 6.25V18.75L34.375 21.875L25 12.5L12.5 25L21.875 34.375L18.75 40.625H6.25V59.375H18.75L21.875 65.625L12.5 75L25 87.5L34.375 78.125L40.625 81.25V93.75H59.375V81.25L65.625 78.125L75 87.5L87.5 75L78.125 65.625L81.25 59.375H93.75V40.625H81.25L78.125 34.375L87.5 25L75 12.5L65.625 21.875L59.375 18.75V6.25H40.625Z" stroke="black" stroke-width="2" stroke-linecap="round" stroke-linejoin="round"/>
<path d="M50 62.5C56.9036 62.5 62.5 56.9036 62.5 50C62.5 43.0964 56.9036 37.5 50 37.5C43.0964 37.5 37.5 43.0964 37.5 50C37.5 56.9036 43.0964 62.5 50 62.5Z" stroke="black" stroke-width="2" stroke-linecap="round" stroke-linejoin="round"/>
</svg>
