<svg width="100" height="100" viewBox="0 0 100 100" fill="none" xmlns="http://www.w3.org/2000/svg">
<path d="M27.6846 13.8953C37.7736 13.8953 47.8439 20.2359 49.9877 27.6141C51.5689 20.5891 61.8783 13.9656 72.2627 13.9656C80.3408 13.9656 88.4627 17.9719 92.5596 28.9141C102.63 55.8187 53.4971 81.6531 49.9861 84.85C46.4752 80.8266 -2.65449 56.2812 7.42207 28.9297C11.4533 17.9875 19.5752 13.8937 27.6846 13.8953ZM27.6846 10.9375H27.6814C17.0346 10.9375 8.64863 17.1203 4.67676 27.8984C-4.36699 52.4453 28.4705 73.9594 42.4893 83.1422C44.7471 84.6219 47.3049 86.2984 47.808 86.8203L49.7674 89.0625L51.9486 87.0437C52.3111 86.725 53.9877 85.6516 55.6096 84.6141C69.0533 76.0078 104.763 53.1437 95.2986 27.8672C91.2893 17.1516 82.8924 11.0063 72.2643 11.0063C63.2893 11.0063 54.4111 15.3234 49.9018 21.2469C45.2424 15.2344 36.4768 10.9391 27.6846 10.9375Z" fill="black"/>
</svg>
