<?xml version="1.0" encoding="iso-8859-1"?>
<!-- Generator: Adobe Illustrator 21.1.0, SVG Export Plug-In . SVG Version: 6.00 Build 0)  -->
<svg version="1.1" id="Layer_1" xmlns="http://www.w3.org/2000/svg" xmlns:xlink="http://www.w3.org/1999/xlink" x="0px" y="0px"
	 viewBox="0 0 24 24" enable-background="new 0 0 24 24" xml:space="preserve">
<g>
	<path fill="#303C42" d="M10.5,10v4c0,0.2763672,0.2236328,0.5,0.5,0.5h2c0.2763672,0,0.5-0.2236328,0.5-0.5s-0.2236328-0.5-0.5-0.5
		h-1.5v-1h1c0.2763672,0,0.5-0.2236328,0.5-0.5s-0.2236328-0.5-0.5-0.5h-1v-1H13c0.2763672,0,0.5-0.2236328,0.5-0.5
		S13.2763672,9.5,13,9.5h-2C10.7236328,9.5,10.5,9.7236328,10.5,10z"/>
	<path fill="#303C42" d="M8,9.5H7c-0.2763672,0-0.5,0.2236328-0.5,0.5v4c0,0.2763672,0.2236328,0.5,0.5,0.5s0.5-0.2236328,0.5-0.5
		v-1.5H8c0.8271484,0,1.5-0.6728516,1.5-1.5S8.8271484,9.5,8,9.5z M8,11.5H7.5v-1H8c0.2753906,0,0.5,0.2241211,0.5,0.5
		S8.2753906,11.5,8,11.5z"/>
	<path fill="#303C42" d="M14.5,10.5h1V14c0,0.2763672,0.2236328,0.5,0.5,0.5s0.5-0.2236328,0.5-0.5v-3.5h1
		c0.2763672,0,0.5-0.2236328,0.5-0.5s-0.2236328-0.5-0.5-0.5h-3C14.2236328,9.5,14,9.7236328,14,10S14.2236328,10.5,14.5,10.5z"/>
	<path fill="#303C42" d="M19.3886719,20.1313477C17.3544922,21.9814453,14.7304688,23,12,23
		c-2.5263672,0-4.9111328-0.8574219-6.8173828-2.3671875l1.1894531-1.9414063
		c0.0820313-0.1342773,0.0957031-0.2998047,0.0380859-0.4458008c-0.0585938-0.1464844-0.1826172-0.2568359-0.3339844-0.2978516
		l-4.140625-1.1210938c-0.1884766-0.0512695-0.3955078,0.0136719-0.5205078,0.1689453
		c-0.1240234,0.1547852-0.1455078,0.3686523-0.0537109,0.5449219C3.4414063,21.5249023,7.5175781,24,12,24
		c2.9794922,0,5.8427734-1.1113281,8.0605469-3.128418c0.2050781-0.1860352,0.2197266-0.5024414,0.0341797-0.706543
		S19.59375,19.9467773,19.3886719,20.1313477z"/>
	<path fill="#7CB342" d="M4.4179688,19.9667969c-0.5800781-0.5532227-1.1025391-1.1733398-1.5566406-1.8535156l2.3085938,0.625
		L4.4179688,19.9667969z"/>
	<path fill="#303C42" d="M1,12C1,7.3706055,3.8740234,3.3999023,7.9326172,1.7792969l1.0859375,2.0009766
		C9.09375,3.918457,9.2294922,4.0131836,9.3847656,4.0361328c0.1542969,0.0214844,0.3134766-0.0283203,0.4248047-0.1396484
		l3.0419922-3.0161133c0.1416016-0.1396484,0.1865234-0.3500977,0.1152344-0.5351563
		c-0.0722656-0.1850586-0.2460938-0.3105469-0.4453125-0.3193359l-0.1738281-0.0107422C12.2324219,0.0073242,12.1171875,0,12,0
		C5.3828125,0,0,5.3833008,0,12c0,0.8413086,0.09375,1.6992188,0.2783203,2.550293
		c0.0507813,0.234375,0.2578125,0.394043,0.4873047,0.394043c0.0351563,0,0.0712891-0.003418,0.1064453-0.0112305
		c0.2705078-0.0585938,0.4414063-0.324707,0.3828125-0.5947266C1.0859375,13.5566406,1,12.7700195,1,12z"/>
	<path fill="#7CB342" d="M11.2880859,1.0229492L9.5791016,2.7172852L8.8896484,1.4477539
		C9.6582031,1.2207031,10.4609375,1.0756836,11.2880859,1.0229492z"/>
	<path fill="#303C42" d="M15.6523438,0.5703125c-0.2675781-0.0869141-0.5439453,0.0615234-0.6289063,0.3237305
		c-0.0839844,0.2631836,0.0615234,0.5444336,0.3242188,0.628418C19.9248047,2.984375,23,7.1948242,23,12
		c0,0.5336914-0.0390625,1.0639648-0.1162109,1.5874023l-2.2753906-0.0595703
		c-0.1699219-0.0039063-0.3076172,0.0664063-0.4052734,0.1899414s-0.1308594,0.2856445-0.0908203,0.4379883l1.0966797,4.1450195
		c0.0507813,0.1918945,0.2099609,0.3354492,0.40625,0.3662109c0.0263672,0.0039063,0.0517578,0.0058594,0.0771484,0.0058594
		c0.1689453,0,0.3291016-0.0859375,0.421875-0.230957C23.3476563,16.5078125,24,14.2802734,24,12
		C24,6.7583008,20.6455078,2.1645508,15.6523438,0.5703125z"/>
	<path fill="#7CB342" d="M21.8613281,16.8574219L21.25,14.5449219l1.4404297,0.0375977
		C22.5,15.3666992,22.2216797,16.1293945,21.8613281,16.8574219z"/>
	<linearGradient id="SVGID_1_" gradientUnits="userSpaceOnUse" x1="1.1244816" y1="6.9296331" x2="22.8695374" y2="17.069519">
		<stop  offset="0" style="stop-color:#FFFFFF;stop-opacity:0.2"/>
		<stop  offset="1" style="stop-color:#FFFFFF;stop-opacity:0"/>
	</linearGradient>
	<path fill="url(#SVGID_1_)" d="M10.5,10v4c0,0.2763672,0.2236328,0.5,0.5,0.5h2c0.2763672,0,0.5-0.2236328,0.5-0.5
		s-0.2236328-0.5-0.5-0.5h-1.5v-1h1c0.2763672,0,0.5-0.2236328,0.5-0.5s-0.2236328-0.5-0.5-0.5h-1v-1H13
		c0.2763672,0,0.5-0.2236328,0.5-0.5S13.2763672,9.5,13,9.5h-2C10.7236328,9.5,10.5,9.7236328,10.5,10z M8,9.5H7
		c-0.2763672,0-0.5,0.2236328-0.5,0.5v4c0,0.2763672,0.2236328,0.5,0.5,0.5s0.5-0.2236328,0.5-0.5v-1.5H8
		c0.8271484,0,1.5-0.6728516,1.5-1.5S8.8271484,9.5,8,9.5z M8,11.5H7.5v-1H8c0.2753906,0,0.5,0.2241211,0.5,0.5
		S8.2753906,11.5,8,11.5z M14.5,10.5h1V14c0,0.2763672,0.2236328,0.5,0.5,0.5s0.5-0.2236328,0.5-0.5v-3.5h1
		c0.2763672,0,0.5-0.2236328,0.5-0.5s-0.2236328-0.5-0.5-0.5h-3C14.2236328,9.5,14,9.7236328,14,10S14.2236328,10.5,14.5,10.5z
		 M19.3886719,20.1313477C17.3544922,21.9814453,14.7304688,23,12,23c-2.5263672,0-4.9111328-0.8574219-6.8173828-2.3671875
		l1.1894531-1.9414063c0.0820313-0.1342773,0.0957031-0.2998047,0.0380859-0.4458008
		c-0.0585938-0.1464844-0.1826172-0.2568359-0.3339844-0.2978516l-4.140625-1.1210938
		c-0.1884766-0.0512695-0.3955078,0.0136719-0.5205078,0.1689453c-0.1240234,0.1547852-0.1455078,0.3686523-0.0537109,0.5449219
		C3.4414063,21.5249023,7.5175781,24,12,24c2.9794922,0,5.8427734-1.1113281,8.0605469-3.128418
		c0.2050781-0.1860352,0.2197266-0.5024414,0.0341797-0.706543S19.59375,19.9467773,19.3886719,20.1313477z M1,12
		C1,7.3706055,3.8740234,3.3999023,7.9326172,1.7792969l1.0859375,2.0009766
		C9.09375,3.918457,9.2294922,4.0131836,9.3847656,4.0361328c0.1542969,0.0214844,0.3134766-0.0283203,0.4248047-0.1396484
		l3.0419922-3.0161133c0.1416016-0.1396484,0.1865234-0.3500977,0.1152344-0.5351563
		c-0.0722656-0.1850586-0.2460938-0.3105469-0.4453125-0.3193359l-0.1738281-0.0107422C12.2324219,0.0073242,12.1171875,0,12,0
		C5.3828125,0,0,5.3833008,0,12c0,0.8413086,0.09375,1.6992188,0.2783203,2.550293
		c0.0507813,0.234375,0.2578125,0.394043,0.4873047,0.394043c0.0351563,0,0.0712891-0.003418,0.1064453-0.0112305
		c0.2705078-0.0585938,0.4414063-0.324707,0.3828125-0.5947266C1.0859375,13.5566406,1,12.7700195,1,12z M15.6523438,0.5703125
		c-0.2675781-0.0869141-0.5439453,0.0615234-0.6289063,0.3237305c-0.0839844,0.2631836,0.0615234,0.5444336,0.3242188,0.628418
		C19.9248047,2.984375,23,7.1948242,23,12c0,0.5336914-0.0390625,1.0639648-0.1162109,1.5874023l-2.2753906-0.0595703
		c-0.1699219-0.0039063-0.3076172,0.0664063-0.4052734,0.1899414s-0.1308594,0.2856445-0.0908203,0.4379883l1.0966797,4.1450195
		c0.0507813,0.1918945,0.2099609,0.3354492,0.40625,0.3662109c0.0263672,0.0039063,0.0517578,0.0058594,0.0771484,0.0058594
		c0.1689453,0,0.3291016-0.0859375,0.421875-0.230957C23.3476563,16.5078125,24,14.2802734,24,12
		C24,6.7583008,20.6455078,2.1645508,15.6523438,0.5703125z"/>
</g>
<g>
</g>
<g>
</g>
<g>
</g>
<g>
</g>
<g>
</g>
<g>
</g>
<g>
</g>
<g>
</g>
<g>
</g>
<g>
</g>
<g>
</g>
<g>
</g>
<g>
</g>
<g>
</g>
<g>
</g>
</svg>
