<svg width="100" height="100" viewBox="0 0 100 100" fill="none" xmlns="http://www.w3.org/2000/svg">
<path d="M12.5 87.5V70.8334C12.5 67.537 13.4775 64.3147 15.3088 61.5739C17.1402 58.833 19.7432 56.6968 22.7886 55.4354C25.834 54.1739 29.1852 53.8439 32.4182 54.4869C35.6512 55.13 38.6209 56.7174 40.9518 59.0482C43.2827 61.3791 44.87 64.3488 45.5131 67.5819C46.1562 70.8149 45.8261 74.166 44.5647 77.2114C43.3032 80.2568 41.167 82.8598 38.4262 84.6912C35.6853 86.5225 32.463 87.5 29.1667 87.5H12.5Z" stroke="black" stroke-width="2" stroke-linecap="round" stroke-linejoin="round"/>
<path d="M87.5008 12.5C75.6084 14.1267 64.3757 18.9339 54.9885 26.4143C45.6014 33.8948 38.4079 43.7708 34.1675 55" stroke="black" stroke-width="2" stroke-linecap="round" stroke-linejoin="round"/>
<path d="M87.4995 12.5C85.8729 24.3924 81.0656 35.6251 73.5852 45.0123C66.1048 54.3995 56.2287 61.5929 44.9995 65.8333" stroke="black" stroke-width="2" stroke-linecap="round" stroke-linejoin="round"/>
<path d="M44.167 37.5C52.2635 41.2369 58.7634 47.7368 62.5003 55.8333" stroke="black" stroke-width="2" stroke-linecap="round" stroke-linejoin="round"/>
</svg>
