<svg width="44" height="26" viewBox="0 0 44 26" fill="none" xmlns="http://www.w3.org/2000/svg">
<path d="M42.4212 1.74633C42.7245 0.738834 42.4212 0 40.9868 0H36.2353C35.0263 0 34.4738 0.639168 34.1705 1.34117C34.1705 1.34117 31.7547 7.23233 28.3313 11.0522C27.2263 12.1637 26.7215 12.5147 26.1192 12.5147C25.818 12.5147 25.3803 12.1637 25.3803 11.1562V1.74633C25.3803 0.537334 25.0315 0 24.024 0H16.5577C15.8037 0 15.3487 0.559 15.3487 1.092C15.3487 2.236 17.0603 2.50033 17.2358 5.72433V12.7183C17.2358 14.2502 16.9607 14.5297 16.354 14.5297C14.7442 14.5297 10.8268 8.61683 8.502 1.84817C8.04917 0.533 7.592 0.00216754 6.37867 0.00216754H1.62933C0.270834 0.00216754 0 0.641334 0 1.34333C0 2.60433 1.60983 8.84433 7.49883 17.0972C11.4248 22.7327 16.952 25.7877 21.9873 25.7877C25.0055 25.7877 25.3782 25.1095 25.3782 23.9395V19.6798C25.3782 18.3235 25.6663 18.0505 26.6218 18.0505C27.3238 18.0505 28.5328 18.4058 31.3517 21.1207C34.5713 24.3403 35.1043 25.7855 36.9135 25.7855H41.6628C43.0192 25.7855 43.6973 25.1073 43.3073 23.7683C42.8805 22.4358 41.3422 20.4967 39.3012 18.2022C38.1918 16.8935 36.5343 15.4852 36.0295 14.781C35.3253 13.8732 35.529 13.4723 36.0295 12.6663C36.0317 12.6685 41.8188 4.5175 42.4212 1.74633Z" fill="#7AA338"/>
</svg>
