<svg width="89" height="89" viewBox="0 0 89 89" fill="none" xmlns="http://www.w3.org/2000/svg">
<path d="M44.5 89C69.0362 89 89 69.0362 89 44.5C89 19.9638 69.0362 0 44.5 0C19.9638 0 0 19.9638 0 44.5C0 69.0362 19.9638 89 44.5 89ZM44.5 2.78125C67.5037 2.78125 86.2188 21.4963 86.2188 44.5C86.2188 67.5037 67.5037 86.2188 44.5 86.2188C21.4963 86.2188 2.78125 67.5037 2.78125 44.5C2.78125 21.4963 21.4963 2.78125 44.5 2.78125Z" fill="black"/>
<path d="M55.7947 60.5422C55.9235 60.6724 56.0768 60.7757 56.2458 60.8462C56.4148 60.9167 56.5961 60.9531 56.7792 60.9531C56.9623 60.9531 57.1436 60.9167 57.3126 60.8462C57.4816 60.7757 57.635 60.6724 57.7638 60.5422C58.0245 60.2814 58.1709 59.9277 58.1709 59.559C58.1709 59.1903 58.0245 58.8366 57.7638 58.5758L44.5 45.3148V25.9184C44.5 25.5496 44.3535 25.1959 44.0927 24.9351C43.8319 24.6743 43.4782 24.5278 43.1094 24.5278C42.7406 24.5278 42.3868 24.6743 42.1261 24.9351C41.8653 25.1959 41.7188 25.5496 41.7188 25.9184V45.8906C41.7188 46.2605 41.8662 46.6137 42.1248 46.8751L55.7947 60.5422Z" fill="black"/>
<path d="M11.125 47.2812C12.661 47.2812 13.9062 46.036 13.9062 44.5C13.9062 42.964 12.661 41.7188 11.125 41.7188C9.58896 41.7188 8.34375 42.964 8.34375 44.5C8.34375 46.036 9.58896 47.2812 11.125 47.2812Z" fill="black"/>
<path d="M77.875 47.2812C79.411 47.2812 80.6562 46.036 80.6562 44.5C80.6562 42.964 79.411 41.7188 77.875 41.7188C76.339 41.7188 75.0938 42.964 75.0938 44.5C75.0938 46.036 76.339 47.2812 77.875 47.2812Z" fill="black"/>
<path d="M44.5 13.9062C46.036 13.9062 47.2812 12.661 47.2812 11.125C47.2812 9.58896 46.036 8.34375 44.5 8.34375C42.964 8.34375 41.7188 9.58896 41.7188 11.125C41.7188 12.661 42.964 13.9062 44.5 13.9062Z" fill="black"/>
<path d="M44.5 80.6562C46.036 80.6562 47.2812 79.411 47.2812 77.875C47.2812 76.339 46.036 75.0938 44.5 75.0938C42.964 75.0938 41.7188 76.339 41.7188 77.875C41.7188 79.411 42.964 80.6562 44.5 80.6562Z" fill="black"/>
<path d="M22.25 25.0312C23.786 25.0312 25.0312 23.786 25.0312 22.25C25.0312 20.714 23.786 19.4688 22.25 19.4688C20.714 19.4688 19.4688 20.714 19.4688 22.25C19.4688 23.786 20.714 25.0312 22.25 25.0312Z" fill="black"/>
<path d="M66.75 69.5312C68.286 69.5312 69.5312 68.286 69.5312 66.75C69.5312 65.214 68.286 63.9688 66.75 63.9688C65.214 63.9688 63.9688 65.214 63.9688 66.75C63.9688 68.286 65.214 69.5312 66.75 69.5312Z" fill="black"/>
<path d="M69.5312 25.0312C71.0673 25.0312 72.3125 23.786 72.3125 22.25C72.3125 20.714 71.0673 19.4688 69.5312 19.4688C67.9952 19.4688 66.75 20.714 66.75 22.25C66.75 23.786 67.9952 25.0312 69.5312 25.0312Z" fill="black"/>
<path d="M22.25 69.5312C23.786 69.5312 25.0312 68.286 25.0312 66.75C25.0312 65.214 23.786 63.9688 22.25 63.9688C20.714 63.9688 19.4688 65.214 19.4688 66.75C19.4688 68.286 20.714 69.5312 22.25 69.5312Z" fill="black"/>
</svg>
