<svg width="35" height="35" viewBox="0 0 35 35" fill="none" xmlns="http://www.w3.org/2000/svg">
<path d="M28.8429 6.1571C30.4837 7.79802 31.4055 10.0235 31.4055 12.3441C31.4055 14.6646 30.4837 16.8901 28.8429 18.5311L18.5324 28.8429C16.8823 30.4388 14.6712 31.3224 12.3757 31.3032C10.0802 31.2841 7.88407 30.3638 6.26075 28.7407C4.63743 27.1175 3.71686 24.9215 3.69746 22.626C3.67805 20.3305 4.56138 18.1193 6.15703 16.469L16.4674 6.1571C18.1086 4.51619 20.3344 3.59436 22.6552 3.59436C24.9759 3.59436 27.2017 4.51619 28.8429 6.1571ZM20.5945 22.6552L12.3447 14.4054L8.21911 18.5325C7.66753 19.072 7.22845 19.7155 6.92728 20.4258C6.62612 21.1362 6.46886 21.8992 6.46461 22.6707C6.46036 23.4422 6.60921 24.207 6.90253 24.9206C7.19585 25.6342 7.62782 26.2825 8.17343 26.828C8.71904 27.3735 9.36744 27.8054 10.0811 28.0986C10.7948 28.3918 11.5595 28.5405 12.331 28.5361C13.1025 28.5317 13.8655 28.3743 14.5758 28.073C15.2861 27.7717 15.9295 27.3325 16.4689 26.7808L20.5945 22.6538V22.6552ZM26.7808 8.21918C26.2391 7.67747 25.596 7.24777 24.8883 6.95459C24.1805 6.66142 23.422 6.51053 22.6559 6.51053C21.8898 6.51053 21.1312 6.66142 20.4235 6.95459C19.7157 7.24777 19.0727 7.67747 18.531 8.21918L14.4083 12.3433L22.6581 20.5931L26.7822 16.469C27.3239 15.9273 27.7537 15.2842 28.0468 14.5765C28.34 13.8687 28.4909 13.1101 28.4909 12.3441C28.4909 11.578 28.34 10.8194 28.0468 10.1117C27.7537 9.40393 27.3239 8.76086 26.7822 8.21918H26.7808Z" fill="white"/>
</svg>
